<mxfile host="app.diagrams.net" agent="Mozilla/5.0 (Windows NT 10.0; Win64; x64) AppleWebKit/537.36 (KHTML, like Gecko) Chrome/131.0.0.0 Safari/537.36" version="25.0.3">
  <diagram name="Class Diagram" id="classDiagram">
    <mxGraphModel dx="3457" dy="1830" grid="1" gridSize="10" guides="1" tooltips="1" connect="1" arrows="1" fold="1" page="1" pageScale="1" pageWidth="827" pageHeight="1169" math="0" shadow="0">
      <root>
        <mxCell id="0" />
        <mxCell id="1" parent="0" />
        <mxCell id="2" value="ResourceType" style="shape=swimlane;startSize=20;fillColor=#f5f5f5;fontColor=#333333;strokeColor=#666666;" parent="1" vertex="1">
          <mxGeometry x="160" y="60" width="160" height="100" as="geometry" />
        </mxCell>
        <mxCell id="2-1" value="name: string" style="text" parent="2" vertex="1">
          <mxGeometry y="20" width="160" height="20" as="geometry" />
        </mxCell>
        <mxCell id="2-2" value="active: boolean" style="text" parent="2" vertex="1">
          <mxGeometry y="40" width="160" height="20" as="geometry" />
        </mxCell>
        <mxCell id="3" value="Resource" style="shape=swimlane;startSize=20;fillColor=#f5f5f5;fontColor=#333333;strokeColor=#666666;" parent="1" vertex="1">
          <mxGeometry x="330" y="320" width="160" height="210" as="geometry" />
        </mxCell>
        <mxCell id="3-1" value="resource_type_id: int" style="text" parent="3" vertex="1">
          <mxGeometry y="20" width="160" height="20" as="geometry" />
        </mxCell>
        <mxCell id="3-2" value="code: string" style="text" parent="3" vertex="1">
          <mxGeometry y="40" width="160" height="20" as="geometry" />
        </mxCell>
        <mxCell id="3-3" value="name: string" style="text" parent="3" vertex="1">
          <mxGeometry y="60" width="160" height="20" as="geometry" />
        </mxCell>
        <mxCell id="3-4" value="detail: string" style="text" parent="3" vertex="1">
          <mxGeometry y="80" width="160" height="20" as="geometry" />
        </mxCell>
        <mxCell id="3-5" value="is_available: boolean" style="text" parent="3" vertex="1">
          <mxGeometry y="100" width="160" height="20" as="geometry" />
        </mxCell>
        <mxCell id="3-6" value="availability_schedule: json" style="text" parent="3" vertex="1">
          <mxGeometry y="120" width="160" height="20" as="geometry" />
        </mxCell>
        <mxCell id="3-7" value="recommendations: text" style="text" parent="3" vertex="1">
          <mxGeometry y="140" width="160" height="20" as="geometry" />
        </mxCell>
        <mxCell id="3-8" value="active: boolean" style="text" parent="3" vertex="1">
          <mxGeometry y="160" width="160" height="20" as="geometry" />
        </mxCell>
        <mxCell id="4" value="ResourceTypeEquipment" style="shape=swimlane;startSize=20;fillColor=#f5f5f5;fontColor=#333333;strokeColor=#666666;" parent="1" vertex="1">
          <mxGeometry x="520" y="90" width="160" height="100" as="geometry" />
        </mxCell>
        <mxCell id="4-1" value="resource_id: int" style="text" parent="4" vertex="1">
          <mxGeometry y="20" width="160" height="20" as="geometry" />
        </mxCell>
        <mxCell id="4-2" value="warehouse_location: string" style="text" parent="4" vertex="1">
          <mxGeometry y="40" width="160" height="20" as="geometry" />
        </mxCell>
        <mxCell id="4-3" value="active: boolean" style="text" parent="4" vertex="1">
          <mxGeometry y="60" width="160" height="20" as="geometry" />
        </mxCell>
        <mxCell id="5" value="ResourceTypeSpace" style="shape=swimlane;startSize=20;fillColor=#f5f5f5;fontColor=#333333;strokeColor=#666666;" parent="1" vertex="1">
          <mxGeometry x="760" y="60" width="160" height="170" as="geometry" />
        </mxCell>
        <mxCell id="5-1" value="resource_id: int" style="text" parent="5" vertex="1">
          <mxGeometry y="20" width="160" height="20" as="geometry" />
        </mxCell>
        <mxCell id="5-2" value="capacity_of_people: int" style="text" parent="5" vertex="1">
          <mxGeometry y="40" width="160" height="20" as="geometry" />
        </mxCell>
        <mxCell id="5-3" value="location_type: string" style="text" parent="5" vertex="1">
          <mxGeometry y="60" width="160" height="20" as="geometry" />
        </mxCell>
        <mxCell id="5-4" value="location_link: string" style="text" parent="5" vertex="1">
          <mxGeometry y="80" width="160" height="20" as="geometry" />
        </mxCell>
        <mxCell id="5-5" value="location_information: string" style="text" parent="5" vertex="1">
          <mxGeometry y="100" width="160" height="20" as="geometry" />
        </mxCell>
        <mxCell id="5-6" value="active: boolean" style="text" parent="5" vertex="1">
          <mxGeometry y="120" width="160" height="20" as="geometry" />
        </mxCell>
        <mxCell id="cBtsXqfFfJApNnSs3LY0-48" style="edgeStyle=orthogonalEdgeStyle;rounded=0;orthogonalLoop=1;jettySize=auto;html=1;exitX=0.5;exitY=1;exitDx=0;exitDy=0;entryX=0.5;entryY=0;entryDx=0;entryDy=0;endArrow=none;endFill=0;startArrow=classic;startFill=1;dashed=1;" edge="1" parent="1" source="6" target="cBtsXqfFfJApNnSs3LY0-21">
          <mxGeometry relative="1" as="geometry" />
        </mxCell>
        <mxCell id="6" value="Reservation" style="shape=swimlane;startSize=20;fillColor=#f5f5f5;fontColor=#333333;strokeColor=#666666;" parent="1" vertex="1">
          <mxGeometry x="760" y="460" width="160" height="225" as="geometry" />
        </mxCell>
        <mxCell id="6-1" value="resource_id: int" style="text" parent="6" vertex="1">
          <mxGeometry y="20" width="160" height="20" as="geometry" />
        </mxCell>
        <mxCell id="6-2" value="user_id: int" style="text" parent="6" vertex="1">
          <mxGeometry y="40" width="160" height="20" as="geometry" />
        </mxCell>
        <mxCell id="6-3" value="start_at: datetime" style="text" parent="6" vertex="1">
          <mxGeometry y="60" width="160" height="20" as="geometry" />
        </mxCell>
        <mxCell id="6-4" value="end_at: datetime" style="text" parent="6" vertex="1">
          <mxGeometry y="80" width="160" height="20" as="geometry" />
        </mxCell>
        <mxCell id="6-5" value="observations: string" style="text" parent="6" vertex="1">
          <mxGeometry y="100" width="160" height="20" as="geometry" />
        </mxCell>
        <mxCell id="6-6" value="all_correct: boolean" style="text" parent="6" vertex="1">
          <mxGeometry y="120" width="160" height="20" as="geometry" />
        </mxCell>
        <mxCell id="6-7" value="user_checker_id: int" style="text" parent="6" vertex="1">
          <mxGeometry y="140" width="160" height="20" as="geometry" />
        </mxCell>
        <mxCell id="6-8" value="status: string" style="text" parent="6" vertex="1">
          <mxGeometry y="160" width="160" height="20" as="geometry" />
        </mxCell>
        <mxCell id="6-9" value="active: boolean" style="text" parent="6" vertex="1">
          <mxGeometry y="180" width="160" height="20" as="geometry" />
        </mxCell>
        <mxCell id="7" value="ReservationLog" style="shape=swimlane;startSize=20;fillColor=#f5f5f5;fontColor=#333333;strokeColor=#666666;" parent="1" vertex="1">
          <mxGeometry x="1050" y="502.5" width="160" height="140" as="geometry" />
        </mxCell>
        <mxCell id="7-1" value="reservation_id: int" style="text" parent="7" vertex="1">
          <mxGeometry y="20" width="160" height="20" as="geometry" />
        </mxCell>
        <mxCell id="7-2" value="user_checker_id: int" style="text" parent="7" vertex="1">
          <mxGeometry y="40" width="160" height="20" as="geometry" />
        </mxCell>
        <mxCell id="7-3" value="status: string" style="text" parent="7" vertex="1">
          <mxGeometry y="60" width="160" height="20" as="geometry" />
        </mxCell>
        <mxCell id="7-4" value="observations: string" style="text" parent="7" vertex="1">
          <mxGeometry y="80" width="160" height="20" as="geometry" />
        </mxCell>
        <mxCell id="7-5" value="active: boolean" style="text" parent="7" vertex="1">
          <mxGeometry y="100" width="160" height="20" as="geometry" />
        </mxCell>
        <mxCell id="8" style="edgeStyle=orthogonalEdgeStyle;rounded=0;orthogonalLoop=1;" parent="1" source="2" target="3" edge="1">
          <mxGeometry relative="1" as="geometry" />
        </mxCell>
        <mxCell id="9" style="edgeStyle=orthogonalEdgeStyle;rounded=0;orthogonalLoop=1;" parent="1" source="3" target="4" edge="1">
          <mxGeometry relative="1" as="geometry" />
        </mxCell>
        <mxCell id="10" style="edgeStyle=orthogonalEdgeStyle;rounded=0;orthogonalLoop=1;" parent="1" source="3" target="5" edge="1">
          <mxGeometry relative="1" as="geometry" />
        </mxCell>
        <mxCell id="11" style="edgeStyle=orthogonalEdgeStyle;rounded=0;orthogonalLoop=1;" parent="1" source="3" target="6" edge="1">
          <mxGeometry relative="1" as="geometry" />
        </mxCell>
        <mxCell id="12" style="edgeStyle=orthogonalEdgeStyle;rounded=0;orthogonalLoop=1;" parent="1" source="6" target="7" edge="1">
          <mxGeometry relative="1" as="geometry" />
        </mxCell>
        <mxCell id="cBtsXqfFfJApNnSs3LY0-12" value="&lt;&lt;interface: ResourceRepositoryInterface&gt;&gt;" style="shape=swimlane;startSize=20;" vertex="1" parent="1">
          <mxGeometry x="210" y="660" width="310" height="190" as="geometry" />
        </mxCell>
        <mxCell id="cBtsXqfFfJApNnSs3LY0-13" value="all():Resoure[]" style="text" vertex="1" parent="cBtsXqfFfJApNnSs3LY0-12">
          <mxGeometry y="20" width="160" height="20" as="geometry" />
        </mxCell>
        <mxCell id="cBtsXqfFfJApNnSs3LY0-14" value="create(array):Resource" style="text" vertex="1" parent="cBtsXqfFfJApNnSs3LY0-12">
          <mxGeometry y="40" width="160" height="20" as="geometry" />
        </mxCell>
        <mxCell id="cBtsXqfFfJApNnSs3LY0-15" value="update(array, id):Resource" style="text" vertex="1" parent="cBtsXqfFfJApNnSs3LY0-12">
          <mxGeometry y="60" width="160" height="20" as="geometry" />
        </mxCell>
        <mxCell id="cBtsXqfFfJApNnSs3LY0-16" value="delete(id)" style="text" vertex="1" parent="cBtsXqfFfJApNnSs3LY0-12">
          <mxGeometry y="80" width="160" height="20" as="geometry" />
        </mxCell>
        <mxCell id="cBtsXqfFfJApNnSs3LY0-17" value="find(id):Resource" style="text" vertex="1" parent="cBtsXqfFfJApNnSs3LY0-12">
          <mxGeometry y="100" width="160" height="20" as="geometry" />
        </mxCell>
        <mxCell id="cBtsXqfFfJApNnSs3LY0-18" value="setAvailable(boolean, id)" style="text" vertex="1" parent="cBtsXqfFfJApNnSs3LY0-12">
          <mxGeometry y="120" width="160" height="20" as="geometry" />
        </mxCell>
        <mxCell id="cBtsXqfFfJApNnSs3LY0-19" value="allByResourceType(id):Resource[]" style="text" vertex="1" parent="cBtsXqfFfJApNnSs3LY0-12">
          <mxGeometry y="140" width="160" height="20" as="geometry" />
        </mxCell>
        <mxCell id="cBtsXqfFfJApNnSs3LY0-20" value="allAvailable():Resource[]" style="text" vertex="1" parent="cBtsXqfFfJApNnSs3LY0-12">
          <mxGeometry y="160" width="160" height="20" as="geometry" />
        </mxCell>
        <mxCell id="cBtsXqfFfJApNnSs3LY0-21" value="&lt;&lt;interface: ReservationRepositoryInterface&gt;&gt;" style="shape=swimlane;startSize=20;" vertex="1" parent="1">
          <mxGeometry x="685" y="780" width="310" height="230" as="geometry" />
        </mxCell>
        <mxCell id="cBtsXqfFfJApNnSs3LY0-22" value="all():Reservation[]" style="text" vertex="1" parent="cBtsXqfFfJApNnSs3LY0-21">
          <mxGeometry y="20" width="160" height="20" as="geometry" />
        </mxCell>
        <mxCell id="cBtsXqfFfJApNnSs3LY0-23" value="create(array):Reservation" style="text" vertex="1" parent="cBtsXqfFfJApNnSs3LY0-21">
          <mxGeometry y="40" width="160" height="20" as="geometry" />
        </mxCell>
        <mxCell id="cBtsXqfFfJApNnSs3LY0-24" value="update(array, id):Reservation" style="text" vertex="1" parent="cBtsXqfFfJApNnSs3LY0-21">
          <mxGeometry y="60" width="160" height="20" as="geometry" />
        </mxCell>
        <mxCell id="cBtsXqfFfJApNnSs3LY0-25" value="delete(id)" style="text" vertex="1" parent="cBtsXqfFfJApNnSs3LY0-21">
          <mxGeometry y="80" width="160" height="20" as="geometry" />
        </mxCell>
        <mxCell id="cBtsXqfFfJApNnSs3LY0-26" value="find(id):Reservation" style="text" vertex="1" parent="cBtsXqfFfJApNnSs3LY0-21">
          <mxGeometry y="100" width="160" height="20" as="geometry" />
        </mxCell>
        <mxCell id="cBtsXqfFfJApNnSs3LY0-27" value="started(id, user_id)" style="text" vertex="1" parent="cBtsXqfFfJApNnSs3LY0-21">
          <mxGeometry y="120" width="160" height="20" as="geometry" />
        </mxCell>
        <mxCell id="cBtsXqfFfJApNnSs3LY0-28" value="allByResource(id):Reservation[]" style="text" vertex="1" parent="cBtsXqfFfJApNnSs3LY0-21">
          <mxGeometry y="140" width="160" height="20" as="geometry" />
        </mxCell>
        <mxCell id="cBtsXqfFfJApNnSs3LY0-29" value="allAvailable():Resource[]" style="text" vertex="1" parent="cBtsXqfFfJApNnSs3LY0-21">
          <mxGeometry y="160" width="160" height="20" as="geometry" />
        </mxCell>
        <mxCell id="cBtsXqfFfJApNnSs3LY0-31" value="completed(id, observations, all_correct, user_id)" style="text" vertex="1" parent="cBtsXqfFfJApNnSs3LY0-21">
          <mxGeometry y="200" width="160" height="20" as="geometry" />
        </mxCell>
        <mxCell id="cBtsXqfFfJApNnSs3LY0-30" value="cancel(id)" style="text" vertex="1" parent="cBtsXqfFfJApNnSs3LY0-21">
          <mxGeometry y="180" width="160" height="20" as="geometry" />
        </mxCell>
        <mxCell id="cBtsXqfFfJApNnSs3LY0-40" style="edgeStyle=orthogonalEdgeStyle;rounded=0;orthogonalLoop=1;jettySize=auto;html=1;exitX=0.5;exitY=1;exitDx=0;exitDy=0;entryX=0.25;entryY=0;entryDx=0;entryDy=0;" edge="1" parent="1" source="cBtsXqfFfJApNnSs3LY0-32" target="cBtsXqfFfJApNnSs3LY0-39">
          <mxGeometry relative="1" as="geometry" />
        </mxCell>
        <mxCell id="cBtsXqfFfJApNnSs3LY0-42" style="edgeStyle=orthogonalEdgeStyle;rounded=0;orthogonalLoop=1;jettySize=auto;html=1;exitX=0.75;exitY=1;exitDx=0;exitDy=0;entryX=0.25;entryY=0;entryDx=0;entryDy=0;" edge="1" parent="1" source="cBtsXqfFfJApNnSs3LY0-32" target="cBtsXqfFfJApNnSs3LY0-41">
          <mxGeometry relative="1" as="geometry" />
        </mxCell>
        <mxCell id="cBtsXqfFfJApNnSs3LY0-32" value="ResourceRepository" style="shape=swimlane;startSize=20;" vertex="1" parent="1">
          <mxGeometry x="30" y="980" width="160" height="50" as="geometry" />
        </mxCell>
        <mxCell id="cBtsXqfFfJApNnSs3LY0-35" style="edgeStyle=orthogonalEdgeStyle;rounded=0;orthogonalLoop=1;jettySize=auto;html=1;exitX=0;exitY=0.5;exitDx=0;exitDy=0;entryX=0.5;entryY=0;entryDx=0;entryDy=0;endArrow=block;endFill=0;" edge="1" parent="1" source="cBtsXqfFfJApNnSs3LY0-16" target="cBtsXqfFfJApNnSs3LY0-32">
          <mxGeometry relative="1" as="geometry" />
        </mxCell>
        <mxCell id="cBtsXqfFfJApNnSs3LY0-43" style="edgeStyle=orthogonalEdgeStyle;rounded=0;orthogonalLoop=1;jettySize=auto;html=1;exitX=0.75;exitY=1;exitDx=0;exitDy=0;entryX=0.75;entryY=0;entryDx=0;entryDy=0;" edge="1" parent="1" source="cBtsXqfFfJApNnSs3LY0-36" target="cBtsXqfFfJApNnSs3LY0-41">
          <mxGeometry relative="1" as="geometry" />
        </mxCell>
        <mxCell id="cBtsXqfFfJApNnSs3LY0-36" value="ReservationRepository" style="shape=swimlane;startSize=20;" vertex="1" parent="1">
          <mxGeometry x="450" y="1010" width="160" height="50" as="geometry" />
        </mxCell>
        <mxCell id="cBtsXqfFfJApNnSs3LY0-37" style="edgeStyle=orthogonalEdgeStyle;rounded=0;orthogonalLoop=1;jettySize=auto;html=1;exitX=0;exitY=1;exitDx=0;exitDy=0;entryX=0.5;entryY=0;entryDx=0;entryDy=0;endArrow=block;endFill=0;" edge="1" parent="1" source="cBtsXqfFfJApNnSs3LY0-23" target="cBtsXqfFfJApNnSs3LY0-36">
          <mxGeometry relative="1" as="geometry" />
        </mxCell>
        <mxCell id="cBtsXqfFfJApNnSs3LY0-38" style="edgeStyle=orthogonalEdgeStyle;rounded=0;orthogonalLoop=1;jettySize=auto;html=1;exitX=0;exitY=0.25;exitDx=0;exitDy=0;entryX=0.25;entryY=0;entryDx=0;entryDy=0;dashed=1;endArrow=none;endFill=0;startArrow=classic;startFill=1;" edge="1" parent="1" source="3-4" target="cBtsXqfFfJApNnSs3LY0-12">
          <mxGeometry relative="1" as="geometry" />
        </mxCell>
        <mxCell id="cBtsXqfFfJApNnSs3LY0-47" style="edgeStyle=orthogonalEdgeStyle;rounded=0;orthogonalLoop=1;jettySize=auto;html=1;exitX=0.5;exitY=1;exitDx=0;exitDy=0;entryX=0.5;entryY=0;entryDx=0;entryDy=0;" edge="1" parent="1" source="cBtsXqfFfJApNnSs3LY0-39" target="cBtsXqfFfJApNnSs3LY0-44">
          <mxGeometry relative="1" as="geometry" />
        </mxCell>
        <mxCell id="cBtsXqfFfJApNnSs3LY0-39" value="ResourceService" style="shape=swimlane;startSize=20;" vertex="1" parent="1">
          <mxGeometry x="70" y="1240" width="160" height="50" as="geometry" />
        </mxCell>
        <mxCell id="cBtsXqfFfJApNnSs3LY0-46" style="edgeStyle=orthogonalEdgeStyle;rounded=0;orthogonalLoop=1;jettySize=auto;html=1;exitX=0.5;exitY=1;exitDx=0;exitDy=0;entryX=0.5;entryY=0;entryDx=0;entryDy=0;" edge="1" parent="1" source="cBtsXqfFfJApNnSs3LY0-41" target="cBtsXqfFfJApNnSs3LY0-45">
          <mxGeometry relative="1" as="geometry" />
        </mxCell>
        <mxCell id="cBtsXqfFfJApNnSs3LY0-41" value="ReservationService" style="shape=swimlane;startSize=20;" vertex="1" parent="1">
          <mxGeometry x="270" y="1100" width="160" height="60" as="geometry" />
        </mxCell>
        <mxCell id="cBtsXqfFfJApNnSs3LY0-44" value="ResourceController" style="shape=swimlane;startSize=20;fillColor=#dae8fc;strokeColor=#6c8ebf;" vertex="1" parent="1">
          <mxGeometry x="70" y="1360" width="160" height="50" as="geometry" />
        </mxCell>
        <mxCell id="cBtsXqfFfJApNnSs3LY0-45" value="ReservationController" style="shape=swimlane;startSize=20;fillColor=#dae8fc;strokeColor=#6c8ebf;" vertex="1" parent="1">
          <mxGeometry x="270" y="1220" width="160" height="50" as="geometry" />
        </mxCell>
      </root>
    </mxGraphModel>
  </diagram>
</mxfile>
